# xmcd
#
# Track frame offsets:
#	150
#	17707
#	33637
#	46587
#	60172
#	75660
#	92292
#	106500
#	124052
#	138120
#	156967
#	158992
#
# Disc length: 2149
#
# Revision: 1
# Processed by: cddbd v1.5.1PL0 Copyright (c) Steve Scherf et al.
# Submitted via: VisiTrax 2.9.5.180 - For more info visit www.synapsa.com
# Normalized: r0:DSETVAR1
#
DISCID=7e08630c
DTITLE=Various Artist - CDX 127 January 1996
DYEAR=1996
DGENRE=
TTITLE0=Mavericks - All you ever do is bring me down
TTITLE1=Six Shooter - Country boy's heart
TTITLE2=Dwight Yoakam - Gone (that'll be me)
TTITLE3=Dan Seals - I'd really love to see you tonight
TTITLE4=Billy Dean - It's what I do
TTITLE5=Mark Collie Nascar II - Love to burn
TTITLE6=Steve Azar - Someday
TTITLE7=Pam Tillis - The river and the highway
TTITLE8=Stephanie Bentley - Who's that girl
TTITLE9=Bobbie Cryner - You'd think he'd know me better
TTITLE10=Lisa Brokop - PSA
TTITLE11=Lisa Brokop - PSA
EXTD=
EXTT0=
EXTT1=
EXTT2=
EXTT3=
EXTT4=
EXTT5=
EXTT6=
EXTT7=
EXTT8=
EXTT9=
EXTT10=
EXTT11=
PLAYORDER=
